<svg width="200" height="188" viewBox="0 0 200 188" fill="none" xmlns="http://www.w3.org/2000/svg">
<path d="M112.5 0C87.1582 0.048825 64.3066 15.4297 54.7852 38.916C51.1719 37.9883 47.4609 37.5 43.75 37.5C19.5801 37.5 0 57.0801 0 81.25C0 105.42 19.5801 125 43.75 125H60.5469C68.4082 103.223 88.4766 87.5488 112.5 87.5C130.957 87.5 146.631 97.9004 157.031 112.646C166.65 112.842 175.537 116.162 182.666 121.631C193.262 116.357 200 105.566 200 93.75C200 78.9062 189.502 66.0644 174.951 63.1348C174.951 62.9394 175 62.6953 175 62.5C175 27.9785 147.021 0 112.5 0ZM112.5 100C90.4297 100.049 71.8262 116.504 69.1406 138.428C66.9434 137.793 64.7461 137.5 62.5 137.5C48.6816 137.5 37.5 148.682 37.5 162.5C37.5 176.318 48.6816 187.5 62.5 187.5H156.25C173.486 187.5 187.5 173.486 187.5 156.25C187.5 139.014 173.486 125 156.25 125C154.883 125 153.516 125.098 152.148 125.293C144.971 109.863 129.492 100 112.5 100Z" fill="#DFDFDF"/>
</svg>
