<svg width="200" height="213" viewBox="0 0 200 213" fill="none" xmlns="http://www.w3.org/2000/svg">
<path d="M186.694 53.6088C178.266 45.2527 167.124 40.5645 155.294 40.4087L151.294 40.3568L150.405 36.4677C148.035 26.1568 142.139 16.8333 133.803 10.1913C125.226 3.39339 114.902 -0.132491 103.936 0.00380705C92.8458 0.166284 82.5354 4.03582 74.0944 11.2039C65.8875 18.1967 60.2905 27.8452 58.3296 38.3634L57.4204 43.2265L52.5116 42.4407C49.6938 41.999 47.1419 41.7979 44.6939 41.8303C32.617 41.999 21.3068 46.8621 12.8401 55.5365C4.40582 64.2177 -0.145626 75.6513 0.00355408 87.7411C0.172264 99.8243 5.03536 111.135 13.7098 119.608C22.3972 128.036 33.8312 132.601 45.9144 132.438L155.306 130.971C167.383 130.802 178.693 125.939 187.16 117.265C195.588 108.577 200.146 97.1365 199.996 85.0534C199.829 73.1913 195.108 62.0369 186.694 53.6088Z" fill="#DFDFDF"/>
<path d="M55.784 146.723C55.784 146.723 47.0186 154.91 44.9537 157.436C44.1679 158.397 43.577 159.546 43.2525 160.825C42.0836 165.48 44.9018 170.214 49.5638 171.389C54.2257 172.564 58.9525 169.733 60.1277 165.078C60.4522 163.792 60.4718 162.513 60.2382 161.292C59.6083 158.091 55.784 146.723 55.784 146.723Z" fill="#DFDFDF"/>
<path d="M45.424 187.83C45.424 187.83 36.6652 196.024 34.6003 198.556C33.8145 199.518 33.2174 200.654 32.8991 201.933C31.7239 206.595 34.5484 211.322 39.2037 212.497C43.8657 213.672 48.5925 210.847 49.7676 206.185C50.0988 204.906 50.1117 203.614 49.8782 202.406C49.2549 199.193 45.424 187.83 45.424 187.83Z" fill="#DFDFDF"/>
<path d="M107.818 146.021C107.818 146.021 99.0654 154.216 96.9943 156.741C96.2085 157.702 95.6176 158.845 95.2998 160.124C94.1179 164.786 96.949 169.513 101.598 170.688C106.266 171.857 110.993 169.039 112.168 164.377C112.493 163.091 112.512 161.812 112.272 160.592C111.648 157.39 107.818 146.021 107.818 146.021Z" fill="#DFDFDF"/>
<path d="M97.4564 187.129C97.4564 187.129 88.7038 195.323 86.6394 197.849C85.8473 198.816 85.2627 199.953 84.9381 201.232C83.763 205.894 86.5874 210.62 91.2494 211.796C95.9047 212.971 100.638 210.146 101.807 205.491C102.131 204.205 102.151 202.92 101.917 201.706C101.287 198.498 97.4564 187.129 97.4564 187.129Z" fill="#DFDFDF"/>
<path d="M159.866 145.328C159.866 145.328 151.101 153.516 149.036 156.041C148.25 157.002 147.653 158.145 147.335 159.424C146.153 164.086 148.984 168.819 153.646 169.995C158.301 171.164 163.035 168.339 164.21 163.677C164.528 162.398 164.548 161.112 164.314 159.892C163.697 156.691 159.866 145.328 159.866 145.328Z" fill="#DFDFDF"/>
<path d="M149.503 186.434C149.503 186.434 140.75 194.621 138.672 197.153C137.887 198.115 137.296 199.257 136.971 200.536C135.802 205.192 138.621 209.925 143.283 211.094C147.944 212.275 152.671 209.451 153.846 204.789C154.171 203.51 154.191 202.218 153.957 201.01C153.327 197.796 149.503 186.434 149.503 186.434Z" fill="#DFDFDF"/>
</svg>
