<svg width="200" height="152" viewBox="0 0 200 152" fill="none" xmlns="http://www.w3.org/2000/svg">
<path d="M22.0839 66.9909C29.7206 62.4448 38.6351 59.8405 48.1581 59.8405C49.3097 59.8405 50.4573 59.8757 51.6089 59.9456C54.8429 48.8577 61.0237 39.121 69.2167 31.5898C67.6561 13.8734 52.7956 0 34.68 0C15.5258 0 0 15.5254 0 34.68C0 49.4003 9.166 61.9581 22.0839 66.9909Z" fill="#DFDFDF"/>
<path d="M164.058 79.6034C164.044 79.6034 164.03 79.6069 164.013 79.6069C164.033 79.0085 164.058 78.4101 164.058 77.8081C164.058 49.0253 140.728 25.6953 111.949 25.6953C84.9893 25.6953 62.8108 46.1691 60.1159 72.4187C56.3362 71.2495 52.3183 70.6194 48.157 70.6194C25.8281 70.6194 7.72656 88.7206 7.72656 111.05C7.72656 133.379 25.8281 151.48 48.157 151.48H164.059C183.906 151.48 199.998 135.392 199.998 115.544C199.998 95.6924 183.906 79.6034 164.058 79.6034Z" fill="#DFDFDF"/>
</svg>
