<svg width="200" height="220" viewBox="0 0 200 220" fill="none" xmlns="http://www.w3.org/2000/svg">
<path d="M162.616 56.0751C162.597 56.0751 162.583 56.0751 162.568 56.0751C162.59 55.4529 162.616 54.834 162.616 54.204C162.616 24.268 138.348 0 108.412 0C80.3722 0 57.2987 21.297 54.4955 48.6015C50.5637 47.3856 46.3842 46.73 42.0553 46.73C18.8328 46.73 0 65.5589 0 88.7857C0 112.012 18.8328 130.841 42.0553 130.841H162.615C183.261 130.841 200 114.105 200 93.4565C200 72.8109 183.261 56.0751 162.616 56.0751Z" fill="#DFDFDF"/>
<path d="M148.802 162.459C152.753 162.459 155.955 159.257 155.955 155.306C155.955 151.355 152.753 148.152 148.802 148.152C144.851 148.152 141.648 151.355 141.648 155.306C141.648 159.257 144.851 162.459 148.802 162.459Z" fill="#DFDFDF"/>
<path d="M101.247 162.459C105.198 162.459 108.401 159.257 108.401 155.306C108.401 151.355 105.198 148.152 101.247 148.152C97.2965 148.152 94.0938 151.355 94.0938 155.306C94.0938 159.257 97.2965 162.459 101.247 162.459Z" fill="#DFDFDF"/>
<path d="M53.6926 162.458C57.6389 162.458 60.8427 159.254 60.8427 155.304C60.8427 151.354 57.6389 148.15 53.6926 148.15C49.7424 148.15 46.5391 151.354 46.5391 155.304C46.5391 159.254 49.7424 162.458 53.6926 162.458Z" fill="#DFDFDF"/>
<path d="M127.665 190.389C131.616 190.389 134.819 187.186 134.819 183.236C134.819 179.285 131.616 176.082 127.665 176.082C123.714 176.082 120.512 179.285 120.512 183.236C120.512 187.186 123.714 190.389 127.665 190.389Z" fill="#DFDFDF"/>
<path d="M80.1145 190.389C84.0652 190.389 87.268 187.186 87.268 183.236C87.268 179.285 84.0652 176.082 80.1145 176.082C76.1637 176.082 72.9609 179.285 72.9609 183.236C72.9609 187.186 76.1637 190.389 80.1145 190.389Z" fill="#DFDFDF"/>
<path d="M53.6926 204.816C49.7424 204.816 46.5391 208.02 46.5391 211.966C46.5391 215.916 49.7424 219.12 53.6926 219.12C57.6427 219.12 60.8465 215.916 60.8465 211.966C60.8465 208.02 57.6427 204.816 53.6926 204.816Z" fill="#DFDFDF"/>
<path d="M101.252 204.816C97.3014 204.816 94.0977 208.02 94.0977 211.966C94.0977 215.916 97.3014 219.12 101.252 219.12C105.201 219.12 108.405 215.916 108.405 211.966C108.405 208.02 105.201 204.816 101.252 204.816Z" fill="#DFDFDF"/>
<path d="M148.802 204.816C144.856 204.816 141.652 208.02 141.652 211.966C141.652 215.916 144.856 219.12 148.802 219.12C152.753 219.12 155.956 215.916 155.956 211.966C155.956 208.02 152.753 204.816 148.802 204.816Z" fill="#DFDFDF"/>
</svg>
