<svg width="200" height="186" viewBox="0 0 200 186" fill="none" xmlns="http://www.w3.org/2000/svg">
<path d="M162.616 56.075C162.601 56.075 162.587 56.0785 162.568 56.0785C162.59 55.4559 162.616 54.8336 162.616 54.2074C162.616 24.2676 138.348 0 108.412 0C80.3723 0 57.2984 21.2973 54.4953 48.6012C50.5633 47.3852 46.3879 46.7297 42.0555 46.7297C18.8289 46.7293 0 65.5582 0 88.7852C0 112.012 18.8289 130.841 42.0555 130.841H69.8945L77.0957 74.7691H141.391L127.47 112.15H151.603L138.948 130.841H162.616C183.261 130.841 200 114.105 200 93.4598C200 72.8102 183.261 56.075 162.616 56.075Z" fill="#DFDFDF"/>
<path d="M125.245 85.9805H86.9609L80 140.188H95.6617L88.7012 185.047L130.465 123.365H111.323L125.245 85.9805Z" fill="#DFDFDF"/>
</svg>
