<svg width="200" height="201" viewBox="0 0 200 201" fill="none" xmlns="http://www.w3.org/2000/svg">
<path d="M42.032 54.8936C43.74 56.5991 46.0555 57.5563 48.4692 57.5546C50.883 57.5529 53.1971 56.5924 54.9027 54.8845C56.6082 53.1765 57.5654 50.861 57.5637 48.4473C57.562 46.0336 56.6015 43.7194 54.8936 42.0138L42.1594 29.2796C40.4526 27.5741 38.1382 26.6164 35.7254 26.6172C33.3125 26.6181 30.9988 27.5774 29.2933 29.2842C27.5877 30.9909 26.63 33.3053 26.6309 35.7182C26.6317 38.131 27.591 40.4447 29.2978 42.1503L42.032 54.8936ZM45.4248 99.9636C45.4248 107.131 46.8364 114.227 49.5791 120.849C52.3217 127.47 56.3417 133.486 61.4095 138.554C66.4773 143.622 72.4936 147.642 79.115 150.385C85.7363 153.127 92.8331 154.539 100 154.539C107.167 154.539 114.264 153.127 120.885 150.385C127.506 147.642 133.523 143.622 138.591 138.554C143.658 133.486 147.678 127.47 150.421 120.849C153.164 114.227 154.575 107.131 154.575 99.9636C154.575 92.7967 153.164 85.7 150.421 79.0786C147.678 72.4572 143.658 66.4409 138.591 61.3731C133.523 56.3053 127.506 52.2853 120.885 49.5427C114.264 46.8 107.167 45.3884 100 45.3884C92.8331 45.3884 85.7363 46.8 79.115 49.5427C72.4936 52.2853 66.4773 56.3053 61.4095 61.3731C56.3417 66.4409 52.3217 72.4572 49.5791 79.0786C46.8364 85.7 45.4248 92.7967 45.4248 99.9636ZM36.3016 99.9909C36.3017 98.7887 36.0634 97.5985 35.6006 96.4889C35.1379 95.3794 34.4597 94.3726 33.6054 93.5268C32.7511 92.681 31.7377 92.0129 30.6236 91.5611C29.5095 91.1094 28.3169 90.883 27.1148 90.895H9.09587C6.6835 90.895 4.36993 91.8534 2.66412 93.5592C0.958312 95.265 0 97.5785 0 99.9909C0 102.403 0.958312 104.717 2.66412 106.423C4.36993 108.128 6.6835 109.087 9.09587 109.087H27.1148C32.1903 109.087 36.3016 105.057 36.3016 99.9909ZM190.904 90.895H172.894C170.482 90.895 168.168 91.8534 166.463 93.5592C164.757 95.265 163.798 97.5785 163.798 99.9909C163.798 102.403 164.757 104.717 166.463 106.423C168.168 108.128 170.482 109.087 172.894 109.087H190.904C193.317 109.087 195.63 108.128 197.336 106.423C199.042 104.717 200 102.403 200 99.9909C200 97.5785 199.042 95.265 197.336 93.5592C195.63 91.8534 193.317 90.895 190.904 90.895ZM42.0229 145.097L29.2887 157.832C28.4339 158.675 27.754 159.679 27.288 160.786C26.822 161.892 26.579 163.08 26.5731 164.281C26.5672 165.482 26.7984 166.672 27.2535 167.783C27.7086 168.895 28.3786 169.905 29.225 170.757C30.0762 171.604 31.0865 172.275 32.1979 172.731C33.3092 173.187 34.4997 173.418 35.7009 173.413C36.9021 173.407 38.0902 173.163 39.197 172.697C40.3038 172.23 41.3075 171.549 42.1503 170.693L54.8845 157.959C56.5414 156.243 57.4582 153.946 57.4375 151.561C57.4167 149.176 56.4601 146.895 54.7737 145.208C53.0872 143.522 50.8059 142.565 48.421 142.544C46.0361 142.524 43.7384 143.44 42.0229 145.097ZM100 36.2925C101.202 36.2926 102.392 36.0543 103.502 35.5915C104.612 35.1288 105.618 34.4506 106.464 33.5963C107.31 32.742 107.978 31.7286 108.43 30.6145C108.881 29.5004 109.108 28.3078 109.096 27.1057V9.09587C109.096 6.6835 108.138 4.36993 106.432 2.66412C104.726 0.958312 102.412 0 100 0C97.5876 0 95.2741 0.958312 93.5683 2.66412C91.8625 4.36993 90.9041 6.6835 90.9041 9.09587V27.1057C90.9041 32.1812 94.9427 36.2925 100 36.2925ZM100 163.689C98.7971 163.689 97.606 163.928 96.4959 164.391C95.3858 164.854 94.3786 165.533 93.5326 166.389C92.6867 167.244 92.0188 168.259 91.5676 169.374C91.1164 170.489 90.8909 171.682 90.9041 172.885V190.895C90.8492 192.124 91.0437 193.351 91.476 194.502C91.9084 195.654 92.5695 196.706 93.4195 197.595C94.2696 198.484 95.2909 199.191 96.4219 199.674C97.5529 200.158 98.7701 200.407 100 200.407C101.23 200.407 102.447 200.158 103.578 199.674C104.709 199.191 105.73 198.484 106.58 197.595C107.431 196.706 108.092 195.654 108.524 194.502C108.956 193.351 109.151 192.124 109.096 190.895V172.885C109.096 167.801 105.066 163.689 100 163.689ZM157.968 54.8936L170.702 42.1503C172.359 40.4348 173.276 38.1371 173.255 35.7522C173.234 33.3673 172.278 31.086 170.591 29.3995C168.905 27.7131 166.624 26.7565 164.239 26.7357C161.854 26.715 159.556 27.6318 157.841 29.2887L145.106 42.0229C143.51 43.7504 142.645 46.0285 142.691 48.3799C142.737 50.7313 143.691 52.9737 145.354 54.6373C147.016 56.3009 149.258 57.2567 151.609 57.3045C153.961 57.3523 156.239 56.4883 157.968 54.8936ZM157.968 145.097C157.129 144.229 156.125 143.536 155.016 143.059C153.906 142.582 152.712 142.331 151.504 142.321C150.297 142.31 149.099 142.54 147.981 142.998C146.863 143.455 145.848 144.131 144.994 144.985C144.14 145.839 143.464 146.854 143.007 147.972C142.55 149.09 142.319 150.288 142.33 151.495C142.34 152.703 142.591 153.897 143.068 155.006C143.545 156.116 144.238 157.12 145.106 157.959L157.841 170.693C161.434 174.286 167.182 174.331 170.766 170.757C171.613 169.906 172.284 168.895 172.74 167.784C173.196 166.673 173.428 165.482 173.422 164.281C173.416 163.08 173.172 161.892 172.706 160.785C172.239 159.678 171.558 158.674 170.702 157.832L157.968 145.097Z" fill="#DFDFDF"/>
</svg>
